<svg  viewBox="0 0 173 88" fill="none" xmlns="http://www.w3.org/2000/svg">
<path d="M15.5376 20.792C15.5376 18.7813 15.9726 16.993 16.8426 15.427C17.7126 13.8417 18.9209 12.614 20.4676 11.744C22.0336 10.8547 23.8026 10.41 25.7746 10.41C28.1912 10.41 30.2599 11.048 31.9806 12.324C33.7012 13.6 34.8516 15.34 35.4316 17.544H29.9796C29.5736 16.6933 28.9936 16.0457 28.2396 15.601C27.5049 15.1563 26.6639 14.934 25.7166 14.934C24.1892 14.934 22.9519 15.4657 22.0046 16.529C21.0572 17.5923 20.5836 19.0133 20.5836 20.792C20.5836 22.5707 21.0572 23.9917 22.0046 25.055C22.9519 26.1183 24.1892 26.65 25.7166 26.65C26.6639 26.65 27.5049 26.4277 28.2396 25.983C28.9936 25.5383 29.5736 24.8907 29.9796 24.04H35.4316C34.8516 26.244 33.7012 27.984 31.9806 29.26C30.2599 30.5167 28.1912 31.145 25.7746 31.145C23.8026 31.145 22.0336 30.71 20.4676 29.84C18.9209 28.9507 17.7126 27.723 16.8426 26.157C15.9726 24.591 15.5376 22.8027 15.5376 20.792ZM48.4154 14.644C50.2714 14.644 51.7601 15.2627 52.8814 16.5C54.0027 17.718 54.5634 19.4 54.5634 21.546V31H49.6334V22.213C49.6334 21.1303 49.3531 20.2893 48.7924 19.69C48.2317 19.0907 47.4777 18.791 46.5304 18.791C45.5831 18.791 44.8291 19.0907 44.2684 19.69C43.7077 20.2893 43.4274 21.1303 43.4274 22.213V31H38.4684V9.54H43.4274V16.993C43.9301 16.2777 44.6164 15.7073 45.4864 15.282C46.3564 14.8567 47.3327 14.644 48.4154 14.644ZM57.0234 22.88C57.0234 21.2173 57.3328 19.7577 57.9514 18.501C58.5894 17.2443 59.4498 16.2777 60.5324 15.601C61.6151 14.9243 62.8234 14.586 64.1574 14.586C65.2981 14.586 66.2938 14.818 67.1444 15.282C68.0144 15.746 68.6814 16.355 69.1454 17.109V14.818H74.1044V31H69.1454V28.709C68.6621 29.463 67.9854 30.072 67.1154 30.536C66.2648 31 65.2691 31.232 64.1284 31.232C62.8138 31.232 61.6151 30.8937 60.5324 30.217C59.4498 29.521 58.5894 28.5447 57.9514 27.288C57.3328 26.012 57.0234 24.5427 57.0234 22.88ZM69.1454 22.909C69.1454 21.6717 68.7974 20.6953 68.1014 19.98C67.4248 19.2647 66.5934 18.907 65.6074 18.907C64.6214 18.907 63.7804 19.2647 63.0844 19.98C62.4078 20.676 62.0694 21.6427 62.0694 22.88C62.0694 24.1173 62.4078 25.1033 63.0844 25.838C63.7804 26.5533 64.6214 26.911 65.6074 26.911C66.5934 26.911 67.4248 26.5533 68.1014 25.838C68.7974 25.1227 69.1454 24.1463 69.1454 22.909ZM86.711 26.795V31H84.188C82.39 31 80.9884 30.565 79.983 29.695C78.9777 28.8057 78.475 27.3653 78.475 25.374V18.936H76.503V14.818H78.475V10.874H83.434V14.818H86.682V18.936H83.434V25.432C83.434 25.9153 83.55 26.2633 83.782 26.476C84.014 26.6887 84.4007 26.795 84.942 26.795H86.711ZM98.4923 26.795V31H95.9693C94.1713 31 92.7696 30.565 91.7643 29.695C90.759 28.8057 90.2563 27.3653 90.2563 25.374V18.936H88.2843V14.818H90.2563V10.874H95.2153V14.818H98.4633V18.936H95.2153V25.432C95.2153 25.9153 95.3313 26.2633 95.5633 26.476C95.7953 26.6887 96.182 26.795 96.7233 26.795H98.4923ZM106.214 17.515C106.794 16.6257 107.519 15.9297 108.389 15.427C109.259 14.905 110.225 14.644 111.289 14.644V19.893H109.926C108.688 19.893 107.76 20.1637 107.142 20.705C106.523 21.227 106.214 22.155 106.214 23.489V31H101.255V14.818H106.214V17.515ZM116.153 13.136C115.283 13.136 114.568 12.8847 114.007 12.382C113.466 11.86 113.195 11.222 113.195 10.468C113.195 9.69467 113.466 9.05667 114.007 8.554C114.568 8.032 115.283 7.771 116.153 7.771C117.004 7.771 117.7 8.032 118.241 8.554C118.802 9.05667 119.082 9.69467 119.082 10.468C119.082 11.222 118.802 11.86 118.241 12.382C117.7 12.8847 117.004 13.136 116.153 13.136ZM118.618 14.818V31H113.659V14.818H118.618ZM132.072 14.644C133.966 14.644 135.474 15.2627 136.596 16.5C137.736 17.718 138.307 19.4 138.307 21.546V31H133.377V22.213C133.377 21.1303 133.096 20.2893 132.536 19.69C131.975 19.0907 131.221 18.791 130.274 18.791C129.326 18.791 128.572 19.0907 128.012 19.69C127.451 20.2893 127.171 21.1303 127.171 22.213V31H122.212V14.818H127.171V16.964C127.673 16.2487 128.35 15.688 129.201 15.282C130.051 14.8567 131.008 14.644 132.072 14.644ZM149.119 31.232C147.533 31.232 146.103 30.8937 144.827 30.217C143.57 29.5403 142.574 28.5737 141.84 27.317C141.124 26.0603 140.767 24.591 140.767 22.909C140.767 21.2463 141.134 19.7867 141.869 18.53C142.603 17.254 143.609 16.2777 144.885 15.601C146.161 14.9243 147.591 14.586 149.177 14.586C150.762 14.586 152.193 14.9243 153.469 15.601C154.745 16.2777 155.75 17.254 156.485 18.53C157.219 19.7867 157.587 21.2463 157.587 22.909C157.587 24.5717 157.21 26.041 156.456 27.317C155.721 28.5737 154.706 29.5403 153.411 30.217C152.135 30.8937 150.704 31.232 149.119 31.232ZM149.119 26.94C150.066 26.94 150.868 26.592 151.526 25.896C152.202 25.2 152.541 24.2043 152.541 22.909C152.541 21.6137 152.212 20.618 151.555 19.922C150.917 19.226 150.124 18.878 149.177 18.878C148.21 18.878 147.408 19.226 146.77 19.922C146.132 20.5987 145.813 21.5943 145.813 22.909C145.813 24.2043 146.122 25.2 146.741 25.896C147.379 26.592 148.171 26.94 149.119 26.94Z" fill="#238CEE"/>
<g clip-path="url(#clip0)">
<path d="M93.7287 69.2673H82.2749L73.0705 76.3783V69.2811H66.4052C63.7005 68.6958 62.6563 65.8715 62.4723 64.5325V45.9659C62.7704 42.4542 65.7612 41.4106 67.2194 41.3278H93.3147C95.8097 41.6259 97.2153 44.0104 97.6064 45.1653V65.0984C97.1207 67.5832 94.8189 68.913 93.7287 69.2673Z" fill="#238CEE"/>
<path d="M76.3691 66.2856H67.3027C66.4526 66.2856 66.0101 65.4758 65.8951 65.0709V46.2973C65.873 45.7341 66.8059 45.2528 67.2751 45.0825H92.9977C93.7042 45.2371 94.0834 46.0396 94.1845 46.4215V64.9604C94.1182 65.8439 93.2461 66.212 92.8183 66.2856H81.1576L76.3691 69.8195V66.2856Z" fill="white"/>
<path d="M107.156 52.1226H100.918L100.974 65.5816C100.532 70.3633 95.7481 72.8472 93.4113 73.4913H82.9787L77.0448 78.1571C78.2481 79.67 79.5517 80.1402 80.0531 80.1863H91.4379L100.974 87.4611V80.1863H107.694C110.189 79.6562 111.254 76.7996 111.475 75.4377V57.023C111.276 53.8315 108.513 52.4262 107.156 52.1226Z" fill="#238CEE"/>
</g>
<defs>
<clipPath id="clip0">
<rect width="49.0167" height="46.1333" fill="white" transform="translate(62.4723 41.3278)"/>
</clipPath>
</defs>
</svg>
